HIERARCHY
ROOT Hips
{
	OFFSET 0.000000 0.000000 0.000000 
	CHANNELS 6 Xposition Yposition Zposition Yrotation Zrotation Xrotation 
	JOINT Lumbar
	{
		OFFSET 0.000000 0.000000 0.000000 
		CHANNELS 3 Zrotation Xrotation Yrotation
		JOINT Neck
		{
			OFFSET 0.000000 0.445665 0.000000 
			CHANNELS 3 Zrotation Xrotation Yrotation
			End Site
			{
				OFFSET 0.000000 0.227535 0.000000 
			}
		}
		JOINT RightShoulder
		{
			OFFSET 0.019635 0.377685 0.194865 
			CHANNELS 3 Zrotation Xrotation Yrotation
			JOINT RightElbow
			{
				OFFSET 0.000000 -0.243375 0.000000 
				CHANNELS 2 Zrotation Yrotation
				JOINT RightWrist
				{
					OFFSET 0.000000 -0.264825 0.000000 
					CHANNELS 2 Zrotation Xrotation
					End Site
					{
						OFFSET 0.006600 -0.176220 0.000990 
					}
				}
			}
		}
		JOINT LeftShoulder
		{
			OFFSET 0.019635 0.377685 -0.194865 
			CHANNELS 3 Zrotation Xrotation Yrotation
			JOINT LeftElbow
			{
				OFFSET 0.000000 -0.243375 0.000000 
				CHANNELS 2 Zrotation Yrotation
				JOINT LeftWrist
				{
					OFFSET 0.000000 -0.264825 0.000000 
					CHANNELS 2 Zrotation Xrotation
					End Site
					{
						OFFSET 0.006600 -0.176220 -0.000990 
					}
				}
			}
		}
	}
	JOINT RightHip
	{
		OFFSET 0.052140 -0.069960 0.075570 
		CHANNELS 3 Zrotation Xrotation Yrotation
		JOINT RightKnee
		{
			OFFSET 0.000000 -0.402270 0.000000 
			CHANNELS 1 Zrotation
			JOINT RightAnkle
			{
				OFFSET 0.000000 -0.404085 0.000000 
				CHANNELS 3 Zrotation Xrotation Yrotation
				End Site
				{
					OFFSET 0.204105 -0.089430 0.008415 
				}
			}
		}
	}
	JOINT LeftHip
	{
		OFFSET 0.052140 -0.069960 -0.075570 
		CHANNELS 3 Zrotation Xrotation Yrotation
		JOINT LeftKnee
		{
			OFFSET 0.000000 -0.402270 0.000000 
			CHANNELS 1 Zrotation
			JOINT LeftAnkle
			{
				OFFSET 0.000000 -0.404085 0.000000 
				CHANNELS 3 Zrotation Xrotation Yrotation
				End Site
				{
					OFFSET 0.204105 -0.089430 -0.008415 
				}
			}
		}
	}
}
MOTION
Frames: 29
Frame Time: 0.02
0.09699 -0.91234 0.05819 -191.14552 -1.71428 -13.0977 3.61528 3.21464 -0.12978 -26.0031 -1.19822 -0.83079 -24.28813 -54.97808 -29.15882 88.55494 82.2577 -10.26498 -4.09697 -12.20159 45.47758 28.93889 93.68719 -85.69919 -16.94895 4.28886 130.40519 -34.09097 -40.62271 -147.63861 -13.66132 35.8088 17.18846 130.40518 18.43671 40.6227 -148.91172 11.45866 -35.79909 -17.18591
0.09615 -0.91232 0.05707 -191.21553 -1.90774 -12.75588 3.87396 3.09502 -0.20883 -25.88428 -1.25347 -0.83079 -24.62636 -55.11619 -29.55449 89.0399 82.28972 -10.62259 -4.31587 -12.51918 45.27225 29.43252 93.9669 -85.71151 -16.97416 4.29951 130.40519 -34.09095 -40.6227 -147.74496 -13.70333 35.80811 17.18827 130.40518 18.57057 40.6227 -148.91172 12.36708 -35.8016 -17.18657
0.0952 -0.91244 0.0554 -191.21817 -2.0691 -12.37512 4.10873 2.9323 -0.30233 -25.78846 -1.33443 -0.83079 -25.01854 -55.14459 -29.97897 89.56881 82.32667 -11.06128 -4.59016 -12.84215 45.0384 29.94438 94.25033 -85.71866 -16.9767 4.33561 130.40519 -34.09093 -40.6227 -147.87397 -13.79186 35.80727 17.18806 130.40518 18.69952 40.6227 -148.91172 13.33428 -35.80279 -17.18688
0.09432 -0.9125 0.05397 -191.24964 -2.24454 -12.01041 4.3515 2.79093 -0.38831 -25.6826 -1.40562 -0.83079 -25.37966 -55.22199 -30.38506 90.07762 82.35691 -11.43495 -4.82294 -13.16288 44.80647 30.44783 94.53349 -85.70818 -16.96824 4.35662 130.40519 -34.09091 -40.6227 -147.99167 -13.8626 35.80653 17.18786 130.40519 18.83371 40.6227 -148.91172 14.26373 -35.80456 -17.18734
0.09338 -0.91255 0.05256 -191.28668 -2.42194 -11.6506 4.60639 2.64048 -0.47833 -25.57459 -1.46959 -0.83079 -25.77225 -55.30165 -30.81743 90.5872 82.4052 -11.92489 -5.12318 -13.48107 44.62125 30.95169 94.80882 -85.77471 -17.04684 4.39224 130.40519 -34.09089 -40.6227 -148.11404 -13.92038 35.80568 17.18764 130.40519 18.95349 40.6227 -148.91173 15.24403 -35.80654 -17.18786
0.09253 -0.91265 0.05098 -191.29691 -2.58751 -11.27205 4.83001 2.49957 -0.56303 -25.47688 -1.55417 -0.83079 -26.11006 -55.35184 -31.19952 91.10502 82.41792 -12.195 -5.29796 -13.80645 44.33142 31.45845 95.1024 -85.68505 -16.94224 4.40404 130.40518 -34.09087 -40.6227 -148.23165 -14.01642 35.80502 17.18747 130.40519 19.10311 40.62271 -148.91173 16.12993 -35.80773 -17.18817
0.09199 -0.91285 0.04906 -191.24912 -2.73073 -10.85227 4.97737 2.3929 -0.63368 -25.39937 -1.69174 -0.83079 -26.29044 -55.33761 -31.44628 91.64126 82.32511 -11.81313 -5.09669 -14.15053 43.76564 31.97606 95.44139 -85.13285 -16.30743 4.33801 130.40518 -34.09086 -40.6227 -148.33383 -14.19824 35.80491 17.18744 130.40519 19.33216 40.6227 -148.91173 16.75033 -35.80689 -17.18795
0.09155 -0.9131 0.04698 -191.17694 -2.86277 -10.4152 5.09337 2.29813 -0.6978 -25.33198 -1.84859 -0.83079 -26.41208 -55.29918 -31.63894 92.18319 82.19791 -11.21241 -4.77033 -14.50188 43.09434 32.49444 95.79972 -84.43029 -15.49466 4.24817 130.40518 -34.09085 -40.6227 -148.4298 -14.41814 35.80501 17.18746 130.40519 19.59228 40.6227 -148.91173 17.27117 -35.8053 -17.18754
0.09107 -0.91334 0.04498 -191.1166 -2.99838 -9.98554 5.221 2.19966 -0.76218 -25.26166 -1.99501 -0.83079 -26.55557 -55.27871 -31.84915 92.71831 82.09 -10.72786 -4.51168 -14.85007 42.46775 33.00814 96.15193 -83.81859 -14.78297 4.17303 130.40518 -34.09083 -40.6227 -148.52647 -14.62605 35.80503 17.18747 130.40518 19.84119 40.6227 -148.91172 17.8312 -35.80414 -17.18723
0.09055 -0.91355 0.04294 -191.05104 -3.13924 -9.55585 5.3588 2.09191 -0.83831 -25.18496 -2.14954 -0.83079 -26.72146 -55.22605 -32.09054 93.27259 81.96518 -10.1738 -4.20882 -15.19783 41.85461 33.54187 96.49244 -83.11174 -13.98511 4.08241 130.40518 -34.09082 -40.6227 -148.63295 -14.8137 35.80498 17.18745 130.40518 20.078 40.6227 -148.91172 18.42005 -35.80258 -17.18683
0.09014 -0.91381 0.04094 -190.99099 -3.26696 -9.12327 5.46835 2.00757 -0.88847 -25.12382 -2.29124 -0.83079 -26.82601 -55.23483 -32.2532 93.78801 81.86936 -9.7137 -3.96796 -15.5481 41.18785 34.03245 96.86256 -82.56719 -13.32484 4.01803 130.40518 -34.09081 -40.6227 -148.71712 -15.05133 35.80512 17.18749 130.40518 20.34699 40.6227 -148.91172 18.92303 -35.80168 -17.18659
0.09001 -0.91421 0.03906 -190.95636 -3.36096 -8.68212 5.50685 1.97933 -0.86631 -25.10162 -2.39398 -0.83079 -26.7745 -55.42995 -32.21558 94.19198 81.84378 -9.546 -3.92543 -15.90393 40.4066 34.41465 97.30412 -82.51026 -13.08787 4.03203 130.40519 -34.09083 -40.6227 -148.74211 -15.42259 35.80578 17.18766 130.40518 20.70142 40.6227 -148.91172 19.22454 -35.80289 -17.18691
0.09 -0.91465 0.03722 -190.92763 -3.44231 -8.23986 5.51819 1.97557 -0.8186 -25.09487 -2.48279 -0.83079 -26.66275 -55.68577 -32.09926 94.55688 81.85115 -9.48302 -3.94974 -16.26188 39.57368 34.75084 97.77595 -82.62151 -12.99578 4.07314 130.40519 -34.09085 -40.6227 -148.7446 -15.84134 35.80662 17.18788 130.40518 21.0864 40.6227 -148.91172 19.44039 -35.80476 -17.1874
0.08993 -0.91506 0.03537 -190.89377 -3.52976 -7.80136 5.54263 1.9644 -0.78395 -25.08201 -2.57711 -0.83079 -26.57954 -55.90788 -32.0168 94.94127 81.8564 -9.38624 -3.94579 -16.61866 38.75956 35.10137 98.23746 -82.65389 -12.83742 4.1016 130.40519 -34.09088 -40.6227 -148.75669 -16.23527 35.80735 17.18808 130.40519 21.45476 40.6227 -148.91173 19.68811 -35.80626 -17.18779
0.08988 -0.91553 0.03348 -190.86945 -3.61542 -7.34814 5.56301 1.9376 -0.74292 -25.06585 -2.67566 -0.83079 -26.49119 -56.15694 -31.94231 95.31873 81.80949 -9.22704 -3.92962 -16.97683 37.96171 35.48142 98.68471 -82.69081 -12.67412 4.13053 130.40519 -34.0909 -40.6227 -148.77118 -16.64557 35.80818 17.18829 130.40519 21.83589 40.62271 -148.91173 19.96331 -35.80802 -17.18825
0.08981 -0.91589 0.03168 -190.8269 -3.70184 -6.92601 5.58549 1.94944 -0.70928 -25.05989 -2.76175 -0.83079 -26.39776 -56.36212 -31.83097 95.70108 81.87533 -9.2213 -3.95506 -17.33217 37.11882 35.78688 99.16913 -82.76082 -12.5585 4.16534 130.40519 -34.09092 -40.62271 -148.77546 -17.03089 35.80884 17.18847 130.40519 22.1971 40.62271 -148.91173 20.16084 -35.80942 -17.18862
0.08965 -0.91593 0.03011 -190.73355 -3.79463 -6.58616 5.62357 2.05849 -0.70144 -25.08011 -2.81747 -0.83079 -26.3245 -56.45242 -31.65612 96.10779 82.28113 -9.65188 -4.09126 -17.68185 36.16706 35.91541 99.74368 -82.87605 -12.53374 4.20878 130.40519 -34.09092 -40.62271 -148.75672 -17.34924 35.80896 17.1885 130.40519 22.49702 40.62271 -148.91173 20.17714 -35.80966 -17.18868
0.08946 -0.91588 0.02864 -190.62161 -3.88849 -6.27853 5.66432 2.20617 -0.7021 -25.10964 -2.86089 -0.83079 -26.24484 -56.49236 -31.44324 96.52034 82.79307 -10.22758 -4.26557 -18.02779 35.17186 35.96675 100.3551 -83.02028 -12.5535 4.25746 130.40519 -34.09091 -40.62271 -148.72861 -17.63787 35.80889 17.18848 130.40519 22.77535 40.62271 -148.91173 20.11658 -35.80952 -17.18864
0.08929 -0.91587 0.02714 -190.51768 -3.98114 -5.95863 5.70191 2.3384 -0.69944 -25.13376 -2.90952 -0.83079 -26.15569 -56.54199 -31.23608 96.92951 83.23189 -10.71247 -4.41478 -18.37404 34.19511 36.04222 100.9533 -83.15549 -12.55771 4.3045 130.40519 -34.0909 -40.62271 -148.70499 -17.93125 35.80891 17.18849 130.40519 23.06272 40.62271 -148.91173 20.08349 -35.80954 -17.18865
0.0891 -0.91585 0.02558 -190.41579 -4.07634 -5.6283 5.74664 2.46263 -0.69357 -25.16363 -2.95946 -0.83079 -26.11686 -56.65062 -31.07655 97.34101 83.77484 -11.30448 -4.59823 -18.72748 33.22154 36.16385 101.53904 -83.27964 -12.54849 4.34941 130.40519 -34.09089 -40.62271 -148.67947 -18.26416 35.80891 17.18848 130.40519 23.35482 40.62271 -148.91173 20.07827 -35.80964 -17.18868
0.08894 -0.91583 0.02415 -190.30518 -4.1667 -5.32784 5.77762 2.61236 -0.69677 -25.18327 -3.00369 -0.83079 -25.97236 -56.62214 -30.8078 97.7488 84.12827 -11.70822 -4.71963 -19.06348 32.2322 36.16969 102.15733 -83.43064 -12.5742 4.39955 130.40519 -34.09089 -40.62271 -148.65617 -18.50597 35.80891 17.18849 130.40519 23.63106 40.62271 -148.91173 19.99857 -35.80947 -17.18863
0.08885 -0.91584 0.02304 -190.17474 -4.24305 -5.09791 5.76896 2.82289 -0.72288 -25.17461 -3.0372 -0.83079 -25.53952 -56.23949 -30.26442 98.15131 83.91116 -11.5422 -4.65128 -19.365 31.20671 35.89083 102.87067 -83.65572 -12.70022 4.46371 130.40519 -34.0909 -40.62271 -148.63981 -18.5123 35.80906 17.18852 130.40519 23.87257 40.62271 -148.91173 19.72708 -35.80855 -17.18839
0.08878 -0.91585 0.02206 -190.03625 -4.3146 -4.89774 5.74666 3.0576 -0.75792 -25.15481 -3.06502 -0.83079 -25.00077 -55.71805 -29.60967 98.54872 83.5042 -11.1843 -4.52071 -19.64648 30.16796 35.49524 103.6122 -83.90465 -12.85655 4.53262 130.40519 -34.09092 -40.62271 -148.6264 -18.42613 35.80922 17.18857 130.40519 24.09787 40.6227 -148.91173 19.385 -35.80738 -17.18808
0.0887 -0.91586 0.02103 -189.90155 -4.38869 -4.68658 5.73147 3.28128 -0.78909 -25.13862 -3.09422 -0.83079 -24.5093 -55.25183 -28.99453 98.9447 83.19695 -10.92266 -4.42403 -19.92909 29.13741 35.1428 104.33195 -84.13723 -12.9884 4.59868 130.40519 -34.09093 -40.62271 -148.61273 -18.37616 35.80934 17.1886 130.40519 24.32817 40.6227 -148.91173 19.07848 -35.80638 -17.18782
0.08863 -0.91586 0.01995 -189.76542 -4.4614 -4.46568 5.71267 3.5067 -0.81993 -25.12904 -3.12826 -0.83079 -24.0202 -54.81687 -28.42388 99.35741 82.83364 -10.6262 -4.30431 -20.24625 28.0952 34.82969 105.09281 -84.39427 -13.16642 4.66798 130.40519 -34.09096 -40.62271 -148.59418 -18.34954 35.80959 17.18866 130.40518 24.56834 40.6227 -148.91172 18.75311 -35.80511 -17.18749
0.08855 -0.91588 0.019 -189.63086 -4.53571 -4.27195 5.69789 3.73347 -0.85325 -25.10275 -3.15083 -0.83079 -23.50229 -54.2847 -27.73535 99.73306 82.54448 -10.35692 -4.21819 -20.48546 27.07587 34.40762 105.77185 -84.60553 -13.25573 4.73146 130.40519 -34.09096 -40.62271 -148.58661 -18.25308 35.80958 17.18866 130.40518 24.78362 40.6227 -148.91172 18.45302 -35.80435 -17.18729
0.08846 -0.91591 0.01835 -189.50083 -4.61685 -4.14383 5.69954 3.96002 -0.89317 -25.03446 -3.14498 -0.83079 -22.92068 -53.51639 -26.74282 100.0154 82.47061 -10.18924 -4.23135 -20.52527 26.11324 33.71676 106.23848 -84.685 -13.08479 4.77875 130.40519 -34.09091 -40.62271 -148.6088 -17.98365 35.80881 17.18846 130.40518 24.94079 40.6227 -148.91172 18.22567 -35.80512 -17.18749
0.08836 -0.91596 0.01783 -189.37322 -4.69955 -4.04229 5.70535 4.18641 -0.93488 -24.94945 -3.12753 -0.83079 -22.31559 -52.65565 -25.63692 100.25906 82.48233 -10.05763 -4.28137 -20.48541 25.17621 32.92035 106.61788 -84.7173 -12.82474 4.81978 130.40519 -34.09084 -40.6227 -148.64194 -17.64812 35.80781 17.1882 130.40519 25.07239 40.6227 -148.91173 18.02936 -35.80639 -17.18782
0.08827 -0.916 0.01727 -189.24558 -4.78074 -3.92983 5.70792 4.41152 -0.97446 -24.87107 -3.11418 -0.83079 -21.72796 -51.8385 -24.58673 100.51538 82.48008 -9.92336 -4.32067 -20.4747 24.23391 32.16993 107.02355 -84.77079 -12.61043 4.86295 130.40519 -34.09078 -40.6227 -148.67006 -17.34441 35.80696 17.18797 130.40519 25.21135 40.6227 -148.91173 17.82859 -35.80739 -17.18809
